# https://github.com/mikedh/trimesh
v -0.25236300 0.43092448 0.60665565
v 0.29801612 -0.41860912 0.65423883
v 0.39707866 0.06606299 0.23732606
v 0.00259579 -0.45656455 0.55929225
v 0.18921756 -0.34414661 0.81427047
v 0.21173967 0.41244422 0.88922233
v -0.18838596 -0.39744337 0.27532293
v 0.08489795 0.38498382 0.22516699
v 0.11194268 0.06347675 0.00000000
v 0.43251454 -0.13171813 0.32055730
v 0.26922491 0.09572403 0.06846004
v 0.16848414 -0.06883987 1.01692237
v -0.26967508 0.04494041 0.11369866
v -0.42533827 0.28996733 0.77638944
v -0.52342433 -0.04538517 0.54567842
v -0.04753436 0.45632988 0.46164729
v -0.10319814 -0.45450685 0.71360251
v -0.00808764 0.42812761 0.75062661
v -0.01722144 -0.17485144 1.12616477
v 0.09003316 0.06719007 1.07322285
v 0.03585110 -0.42088661 0.21768562
v -0.03663678 0.43538373 0.27601085
v 0.37303822 0.36820799 0.43056704
v 0.35554840 -0.30047690 0.32461371
v 0.20434290 -0.19680434 0.06282117
v 0.39029166 0.25290578 0.23396327
v 0.31243248 -0.21414841 0.86808998
v 0.40912473 -0.23141604 0.61929410
v 0.24257680 0.03891489 0.97434313
v 0.37405231 -0.12480963 0.81013627
v 0.22508862 0.22582372 1.00246191
v 0.40222525 0.21563628 0.84898426
v 0.48022695 0.03604653 0.60595093
v 0.52334925 -0.06175104 0.41161383
v 0.46920640 -0.00544372 0.65658162
v -0.37313885 0.19867861 0.32053311
v -0.16357781 0.35849240 0.28675239
v -0.39070147 -0.34461471 0.38359021
v -0.46337362 -0.05572869 0.25755031
v -0.04209129 -0.20381779 0.05255559
v -0.10530239 0.13767863 0.04873853
v -0.29008302 0.31192597 0.82339447
v -0.33240252 -0.33076834 0.82522169
v -0.06479117 -0.24563614 1.05596312
v -0.04379295 0.03511817 1.13298533
v -0.25279358 0.19157846 0.94658400
v -0.25229691 -0.03382978 1.05930209
v -0.48320719 0.10167231 0.32605449
v -0.41738049 0.21013833 0.39378625
f 38 43 15
f 17 43 38
f 45 6 46
f 47 14 15
f 15 43 47
f 47 46 14
f 45 46 47
f 45 47 19
f 31 6 45
f 14 1 49
f 49 37 36
f 1 37 49
f 16 6 23
f 34 26 23
f 39 38 15
f 18 6 16
f 16 1 18
f 14 46 42
f 42 46 6
f 6 18 42
f 42 1 14
f 42 18 1
f 44 43 17
f 44 47 43
f 44 19 47
f 5 2 27
f 27 19 5
f 19 44 5
f 17 2 5
f 5 44 17
f 27 2 28
f 28 2 34
f 34 35 28
f 45 19 20
f 20 31 45
f 19 31 20
f 12 19 27
f 12 31 19
f 6 31 32
f 32 23 6
f 8 11 9
f 26 11 8
f 8 23 26
f 3 26 34
f 34 11 3
f 3 11 26
f 48 39 15
f 15 14 48
f 14 49 48
f 48 49 36
f 36 37 48
f 38 39 40
f 4 2 17
f 9 11 25
f 25 40 9
f 25 11 34
f 34 2 24
f 30 32 27
f 35 32 30
f 27 28 30
f 30 28 35
f 34 23 33
f 23 32 33
f 33 35 34
f 33 32 35
f 31 12 29
f 29 32 31
f 29 12 27
f 27 32 29
f 39 48 13
f 13 40 39
f 40 25 21
f 25 24 21
f 2 4 21
f 21 24 2
f 10 25 34
f 34 24 10
f 10 24 25
f 22 37 1
f 22 1 16
f 16 23 22
f 23 8 22
f 41 48 37
f 41 13 48
f 37 22 41
f 9 40 41
f 40 13 41
f 41 8 9
f 41 22 8
f 38 40 7
f 40 21 7
f 17 38 7
f 7 4 17
f 7 21 4

