# https://github.com/mikedh/trimesh
v -0.14987030 -0.37400012 0.62011769
v 0.06231753 0.26610263 0.13466647
v -0.05094335 -0.35806568 0.77942809
v 0.12669491 -0.34615841 0.31727962
v 0.36397296 -0.24814014 0.38821593
v 0.28230945 -0.14068939 0.06396239
v 0.29856669 -0.12022296 1.05396293
v -0.42538223 -0.17354045 0.38859754
v -0.35474329 0.26067691 0.66068333
v -0.44160078 -0.16132950 0.69503612
v 0.18146478 0.41508923 0.54032564
v -0.02276191 -0.29915559 0.99753431
v -0.15273883 0.39778004 0.63324374
v 0.09803229 0.33514003 0.90734996
v 0.13447383 0.42874970 0.71067205
v -0.05819802 0.37335358 0.75575635
v 0.03395611 -0.00612376 1.10904944
v -0.15563173 -0.38392781 0.46846970
v -0.13427141 -0.23048554 0.14386601
v 0.24976466 -0.36345027 0.45018194
v 0.01651894 -0.36466003 0.29808055
v 0.09017238 0.37372827 0.34158618
v 0.45569797 0.19254637 0.42484555
v 0.02058770 -0.18436028 0.03119415
v 0.06998019 0.04567705 0.00000000
v 0.20488556 0.08580622 0.05588164
v 0.44016299 -0.13731152 0.77122021
v 0.24901148 -0.26821749 0.83351015
v 0.37412813 -0.08739130 0.93288656
v 0.20273253 0.25356467 0.96806128
v 0.50316680 0.10289528 0.76950662
v -0.17148618 0.03330454 0.01100157
v -0.39289042 -0.18278635 0.15706588
v -0.16740510 0.21345998 0.08354233
v -0.34664841 0.00457571 0.16394304
v -0.27308184 0.35003181 0.70882902
v -0.38524982 0.11181164 0.83780884
v -0.33815044 0.29071154 0.76050122
v -0.33510807 -0.28521451 0.66593753
v -0.33107007 -0.27435611 0.73182337
v -0.21820873 -0.27874853 0.91508595
v -0.19488767 -0.13535910 1.08954465
v -0.31834323 0.02265417 0.99313020
v -0.09906576 0.26417200 0.98001512
v -0.32374800 0.18229413 0.90535205
v -0.30181601 0.08498819 0.99130990
v -0.50943175 0.03980263 0.34175708
v -0.45067710 0.00379541 0.65777747
f 23 11 31
f 31 5 23
f 35 33 47
f 47 34 35
f 32 34 25
f 33 35 32
f 32 35 34
f 6 23 5
f 31 11 15
f 15 30 31
f 20 6 5
f 4 6 20
f 18 33 21
f 21 20 18
f 4 20 21
f 21 6 4
f 25 34 2
f 10 48 47
f 31 30 7
f 36 34 47
f 47 9 36
f 30 15 14
f 14 44 30
f 6 21 24
f 33 32 24
f 24 32 25
f 25 6 24
f 11 23 22
f 23 2 22
f 22 2 34
f 25 2 26
f 26 2 23
f 26 6 25
f 23 6 26
f 39 33 18
f 42 7 17
f 17 7 30
f 17 46 42
f 44 46 17
f 30 44 17
f 12 7 42
f 27 5 31
f 27 20 5
f 47 48 37
f 48 10 37
f 45 46 44
f 45 37 46
f 16 36 44
f 44 14 16
f 15 36 16
f 16 14 15
f 19 21 33
f 33 24 19
f 19 24 21
f 13 36 15
f 13 15 11
f 11 22 13
f 34 36 13
f 13 22 34
f 33 39 8
f 8 39 10
f 47 33 8
f 8 10 47
f 1 39 18
f 18 20 1
f 10 39 40
f 39 1 40
f 28 12 20
f 7 12 28
f 20 27 28
f 28 27 7
f 31 7 29
f 29 27 31
f 7 27 29
f 43 37 10
f 46 37 43
f 43 10 42
f 42 46 43
f 44 36 38
f 38 45 44
f 38 36 9
f 37 45 38
f 38 9 47
f 47 37 38
f 20 12 3
f 3 1 20
f 41 40 1
f 41 3 12
f 1 3 41
f 41 12 42
f 42 10 41
f 10 40 41

