# https://github.com/mikedh/trimesh
v 0.20003819 -0.34541176 0.57105639
v 0.05066768 0.22693856 1.06033700
v 0.28789509 0.25686441 0.31844694
v 0.39799888 -0.19442427 0.44356330
v 0.26481920 -0.16190640 0.13332154
v 0.25469138 -0.17384120 1.03217013
v -0.42248823 0.15024842 0.41666541
v -0.31791031 0.19087920 0.73637847
v -0.21356544 0.33226050 0.64016240
v 0.00270242 -0.37081054 0.92217420
v 0.19313394 0.38074993 0.75207173
v 0.00506408 0.41261673 0.62909138
v -0.05922095 0.37450495 0.85471946
v -0.00025373 0.07172914 1.09211972
v 0.08802422 -0.32109278 0.12206153
v -0.09984748 -0.30089343 0.25105289
v -0.25675522 0.27934013 0.45663867
v -0.12186603 0.30968853 0.18142951
v 0.25400820 0.30739198 0.33991739
v -0.10184626 -0.00489809 0.03999781
v 0.08869580 0.03258653 0.00000000
v 0.33520141 0.11336992 0.18611967
v 0.11025036 0.09430709 0.06051804
v 0.40036289 0.14615678 0.85954038
v 0.31062556 0.29326902 0.72360854
v 0.36564842 -0.23709408 0.72231557
v 0.12700156 -0.01556467 1.07613483
v 0.11409668 0.10601596 1.06387076
v 0.44925815 0.02512311 0.38756990
v 0.42322413 0.09554289 0.61149742
v 0.47093722 -0.07305300 0.68583100
v -0.23424867 -0.31664762 0.53956114
v -0.38786121 -0.16957727 0.44342581
v -0.30338859 -0.25364506 0.35644240
v -0.14860948 -0.19535826 0.08736160
v -0.38943277 0.00664121 0.20708159
v -0.35979746 -0.05165113 0.21297828
v -0.36788141 0.15307339 0.15209053
v -0.38019466 0.17392356 0.62952168
v -0.45250539 -0.13385205 0.85916703
v -0.39911648 -0.18092249 0.56142388
v -0.04244700 -0.14734354 1.08713194
v -0.17250514 0.11587037 1.07793096
v -0.31007399 -0.05960158 1.01542416
v -0.48113115 0.01917447 0.66395470
v -0.45645812 0.00299251 0.52316134
v -0.43697694 0.10977669 0.65558112
f 5 15 21
f 21 15 35
f 21 38 18
f 12 19 18
f 30 24 31
f 22 5 21
f 2 43 14
f 31 24 6
f 12 18 9
f 39 47 9
f 10 44 40
f 40 47 45
f 40 44 43
f 43 47 40
f 15 10 32
f 10 40 32
f 20 38 21
f 21 35 20
f 20 35 38
f 38 35 36
f 36 46 38
f 21 18 23
f 23 18 19
f 23 22 21
f 19 22 23
f 1 10 15
f 3 22 19
f 5 22 29
f 29 30 31
f 22 3 29
f 11 2 24
f 11 19 12
f 14 43 42
f 43 44 42
f 42 44 10
f 10 6 42
f 14 42 27
f 27 42 6
f 43 2 13
f 12 9 13
f 13 11 12
f 2 11 13
f 39 9 7
f 7 47 39
f 45 47 7
f 7 46 45
f 38 46 7
f 17 18 38
f 17 9 18
f 38 7 17
f 17 7 9
f 37 36 35
f 35 34 37
f 26 6 10
f 10 1 26
f 31 6 26
f 4 29 31
f 31 26 4
f 5 29 4
f 4 26 1
f 15 5 4
f 4 1 15
f 19 11 25
f 25 11 24
f 24 30 25
f 25 3 19
f 30 29 25
f 25 29 3
f 28 6 24
f 28 27 6
f 24 2 28
f 28 2 14
f 14 27 28
f 8 9 47
f 8 13 9
f 8 47 43
f 43 13 8
f 15 32 16
f 32 34 16
f 16 35 15
f 16 34 35
f 41 32 40
f 41 34 32
f 41 40 45
f 45 46 33
f 33 41 45
f 46 36 33
f 34 41 33
f 36 37 33
f 33 37 34

